<svg xmlns="http://www.w3.org/2000/svg" version="1.1" xmlns:xlink="http://www.w3.org/1999/xlink" xmlns:svgjs="http://svgjs.dev/svgjs" viewBox="0 0 2400 800" opacity="0.15"><g fill="hsla(0, 0%, 100%, 1.00)" transform="matrix(1,0,0,1,-1.936279296875,-390.3019104003906)"><path d="M-10,10C158.75,19.583333333333336,464.58333333333337,62.041666666666664,800,56C1135.4166666666665,49.958333333333336,1266.6666666666665,-19.208333333333332,1600,-19C1933.3333333333335,-18.791666666666668,2181.25,-30.291666666666657,2400,57C2618.75,144.29166666666666,3254.1666666666665,224.375,2650,400C2045.8333333333335,575.625,156.25,795.8333333333334,-500,900" transform="matrix(1,0,0,1,0,150)" opacity="0.05"></path><path d="M-10,10C158.75,19.583333333333336,464.58333333333337,62.041666666666664,800,56C1135.4166666666665,49.958333333333336,1266.6666666666665,-19.208333333333332,1600,-19C1933.3333333333335,-18.791666666666668,2181.25,-30.291666666666657,2400,57C2618.75,144.29166666666666,3254.1666666666665,224.375,2650,400C2045.8333333333335,575.625,156.25,795.8333333333334,-500,900" transform="matrix(1,0,0,1,0,300)" opacity="0.17"></path><path d="M-10,10C158.75,19.583333333333336,464.58333333333337,62.041666666666664,800,56C1135.4166666666665,49.958333333333336,1266.6666666666665,-19.208333333333332,1600,-19C1933.3333333333335,-18.791666666666668,2181.25,-30.291666666666657,2400,57C2618.75,144.29166666666666,3254.1666666666665,224.375,2650,400C2045.8333333333335,575.625,156.25,795.8333333333334,-500,900" transform="matrix(1,0,0,1,0,450)" opacity="0.29"></path><path d="M-10,10C158.75,19.583333333333336,464.58333333333337,62.041666666666664,800,56C1135.4166666666665,49.958333333333336,1266.6666666666665,-19.208333333333332,1600,-19C1933.3333333333335,-18.791666666666668,2181.25,-30.291666666666657,2400,57C2618.75,144.29166666666666,3254.1666666666665,224.375,2650,400C2045.8333333333335,575.625,156.25,795.8333333333334,-500,900" transform="matrix(1,0,0,1,0,600)" opacity="0.41"></path><path d="M-10,10C158.75,19.583333333333336,464.58333333333337,62.041666666666664,800,56C1135.4166666666665,49.958333333333336,1266.6666666666665,-19.208333333333332,1600,-19C1933.3333333333335,-18.791666666666668,2181.25,-30.291666666666657,2400,57C2618.75,144.29166666666666,3254.1666666666665,224.375,2650,400C2045.8333333333335,575.625,156.25,795.8333333333334,-500,900" transform="matrix(1,0,0,1,0,750)" opacity="0.53"></path><path d="M-10,10C158.75,19.583333333333336,464.58333333333337,62.041666666666664,800,56C1135.4166666666665,49.958333333333336,1266.6666666666665,-19.208333333333332,1600,-19C1933.3333333333335,-18.791666666666668,2181.25,-30.291666666666657,2400,57C2618.75,144.29166666666666,3254.1666666666665,224.375,2650,400C2045.8333333333335,575.625,156.25,795.8333333333334,-500,900" transform="matrix(1,0,0,1,0,900)" opacity="0.64"></path><path d="M-10,10C158.75,19.583333333333336,464.58333333333337,62.041666666666664,800,56C1135.4166666666665,49.958333333333336,1266.6666666666665,-19.208333333333332,1600,-19C1933.3333333333335,-18.791666666666668,2181.25,-30.291666666666657,2400,57C2618.75,144.29166666666666,3254.1666666666665,224.375,2650,400C2045.8333333333335,575.625,156.25,795.8333333333334,-500,900" transform="matrix(1,0,0,1,0,1050)" opacity="0.76"></path><path d="M-10,10C158.75,19.583333333333336,464.58333333333337,62.041666666666664,800,56C1135.4166666666665,49.958333333333336,1266.6666666666665,-19.208333333333332,1600,-19C1933.3333333333335,-18.791666666666668,2181.25,-30.291666666666657,2400,57C2618.75,144.29166666666666,3254.1666666666665,224.375,2650,400C2045.8333333333335,575.625,156.25,795.8333333333334,-500,900" transform="matrix(1,0,0,1,0,1200)" opacity="0.88"></path><path d="M-10,10C158.75,19.583333333333336,464.58333333333337,62.041666666666664,800,56C1135.4166666666665,49.958333333333336,1266.6666666666665,-19.208333333333332,1600,-19C1933.3333333333335,-18.791666666666668,2181.25,-30.291666666666657,2400,57C2618.75,144.29166666666666,3254.1666666666665,224.375,2650,400C2045.8333333333335,575.625,156.25,795.8333333333334,-500,900" transform="matrix(1,0,0,1,0,1350)" opacity="1.00"></path></g></svg>