<svg xmlns="http://www.w3.org/2000/svg" version="1.1" xmlns:xlink="http://www.w3.org/1999/xlink" xmlns:svgjs="http://svgjs.dev/svgjs" viewBox="0 0 800 800"><circle r="5" cx="168" cy="299" fill="hsl(216, 50%, 50%)" opacity="0.22"></circle><circle r="5.5" cx="356" cy="301" fill="hsl(216, 50%, 50%)" opacity="0.94"></circle><circle r="6.5" cx="559" cy="365" fill="hsl(215, 50%, 50%)" opacity="0.69"></circle><circle r="8" cx="711" cy="16" fill="hsl(215, 50%, 50%)" opacity="0.14"></circle><circle r="7" cx="368" cy="706" fill="hsl(216, 50%, 50%)" opacity="0.29"></circle><circle r="8" cx="499" cy="401" stroke-width="2" stroke="hsl(215, 50%, 50%)" fill="none" opacity="0.83"></circle><circle r="9.5" cx="750" cy="660" stroke-width="2" stroke="hsl(215, 50%, 50%)" fill="none" opacity="0.26"></circle><circle r="6.5" cx="424" cy="288" fill="hsl(215, 50%, 50%)" opacity="0.49"></circle><circle r="7" cx="583" cy="592" stroke-width="2" stroke="hsl(216, 50%, 50%)" fill="none" opacity="0.75"></circle><circle r="4.5" cx="228" cy="315" stroke-width="2" stroke="hsl(217, 50%, 50%)" fill="none" opacity="0.14"></circle><circle r="5.5" cx="637" cy="424" stroke-width="2" stroke="hsl(216, 50%, 50%)" fill="none" opacity="0.26"></circle><circle r="6" cx="643" cy="153" stroke-width="2" stroke="hsl(216, 50%, 50%)" fill="none" opacity="0.26"></circle><circle r="7" cx="565" cy="630" fill="hsl(216, 50%, 50%)" opacity="0.48"></circle><circle r="5.5" cx="374" cy="86" stroke-width="2" stroke="hsl(216, 50%, 50%)" fill="none" opacity="0.28"></circle><circle r="8.5" cx="457" cy="631" stroke-width="2" stroke="hsl(215, 50%, 50%)" fill="none" opacity="0.73"></circle><circle r="7" cx="715" cy="139" stroke-width="2" stroke="hsl(215, 50%, 50%)" fill="none" opacity="0.32"></circle><circle r="7.5" cx="730" cy="108" stroke-width="2" stroke="hsl(215, 50%, 50%)" fill="none" opacity="0.78"></circle><circle r="5" cx="146" cy="164" stroke-width="2" stroke="hsl(216, 50%, 50%)" fill="none" opacity="0.45"></circle><circle r="5.5" cx="152" cy="16" stroke-width="2" stroke="hsl(216, 50%, 50%)" fill="none" opacity="0.15"></circle><circle r="9.5" cx="745" cy="704" fill="hsl(215, 50%, 50%)" opacity="0.51"></circle><circle r="5.5" cx="339" cy="546" fill="hsl(216, 50%, 50%)" opacity="0.80"></circle><circle r="6.5" cx="632" cy="538" fill="hsl(216, 50%, 50%)" opacity="0.85"></circle><circle r="5" cx="173" cy="150" fill="hsl(216, 50%, 50%)" opacity="0.12"></circle><circle r="7" cx="66" cy="112" stroke-width="2" stroke="hsl(215, 50%, 50%)" fill="none" opacity="0.37"></circle><circle r="5.5" cx="574" cy="247" stroke-width="2" stroke="hsl(216, 50%, 50%)" fill="none" opacity="0.82"></circle><circle r="4.5" cx="184" cy="382" stroke-width="2" stroke="hsl(217, 50%, 50%)" fill="none" opacity="0.89"></circle><circle r="5.5" cx="661" cy="122" fill="hsl(216, 50%, 50%)" opacity="0.20"></circle><circle r="6.5" cx="76" cy="145" fill="hsl(215, 50%, 50%)" opacity="0.11"></circle><circle r="5" cx="327" cy="48" stroke-width="2" stroke="hsl(217, 50%, 50%)" fill="none" opacity="0.55"></circle><circle r="9.5" cx="750" cy="517" fill="hsl(215, 50%, 50%)" opacity="0.44"></circle><circle r="7" cx="675" cy="14" stroke-width="2" stroke="hsl(215, 50%, 50%)" fill="none" opacity="0.71"></circle><circle r="8.5" cx="464" cy="710" fill="hsl(215, 50%, 50%)" opacity="0.78"></circle><circle r="5.5" cx="613" cy="446" stroke-width="2" stroke="hsl(216, 50%, 50%)" fill="none" opacity="0.98"></circle><circle r="7" cx="786" cy="117" fill="hsl(214, 50%, 50%)" opacity="0.44"></circle><circle r="5.5" cx="186" cy="523" stroke-width="2" stroke="hsl(217, 50%, 50%)" fill="none" opacity="0.66"></circle><circle r="5.5" cx="329" cy="430" fill="hsl(216, 50%, 50%)" opacity="0.22"></circle><circle r="4.5" cx="274" cy="98" stroke-width="2" stroke="hsl(216, 50%, 50%)" fill="none" opacity="0.59"></circle><circle r="6.5" cx="444" cy="758" stroke-width="2" stroke="hsl(215, 50%, 50%)" fill="none" opacity="0.80"></circle><circle r="4" cx="234" cy="729" fill="hsl(217, 50%, 50%)" opacity="0.94"></circle><circle r="8" cx="473" cy="584" stroke-width="2" stroke="hsl(215, 50%, 50%)" fill="none" opacity="0.11"></circle><circle r="6.5" cx="521" cy="431" stroke-width="2" stroke="hsl(215, 50%, 50%)" fill="none" opacity="0.84"></circle><circle r="6" cx="371" cy="472" fill="hsl(216, 50%, 50%)" opacity="0.44"></circle><circle r="7" cx="596" cy="15" stroke-width="2" stroke="hsl(215, 50%, 50%)" fill="none" opacity="0.99"></circle><circle r="5" cx="181" cy="694" stroke-width="2" stroke="hsl(217, 50%, 50%)" fill="none" opacity="0.20"></circle><circle r="7" cx="499" cy="261" stroke-width="2" stroke="hsl(215, 50%, 50%)" fill="none" opacity="0.11"></circle><circle r="4.5" cx="195" cy="204" fill="hsl(217, 50%, 50%)" opacity="0.18"></circle><circle r="6" cx="103" cy="207" stroke-width="2" stroke="hsl(216, 50%, 50%)" fill="none" opacity="0.66"></circle><circle r="5.5" cx="97" cy="98" fill="hsl(216, 50%, 50%)" opacity="0.52"></circle><circle r="9.5" cx="18" cy="708" fill="hsl(214, 50%, 50%)" opacity="0.23"></circle><circle r="7.5" cx="786" cy="397" stroke-width="2" stroke="hsl(214, 50%, 50%)" fill="none" opacity="0.48"></circle><circle r="5" cx="269" cy="512" stroke-width="2" stroke="hsl(217, 50%, 50%)" fill="none" opacity="0.18"></circle><circle r="6.5" cx="367" cy="783" stroke-width="2" stroke="hsl(216, 50%, 50%)" fill="none" opacity="0.37"></circle><circle r="6" cx="358" cy="442" stroke-width="2" stroke="hsl(216, 50%, 50%)" fill="none" opacity="0.60"></circle><circle r="6" cx="352" cy="622" fill="hsl(216, 50%, 50%)" opacity="0.55"></circle><circle r="5.5" cx="462" cy="16" fill="hsl(216, 50%, 50%)" opacity="0.70"></circle><circle r="6.5" cx="577" cy="212" stroke-width="2" stroke="hsl(216, 50%, 50%)" fill="none" opacity="0.48"></circle><circle r="8" cx="55" cy="779" stroke-width="2" stroke="hsl(215, 50%, 50%)" fill="none" opacity="0.64"></circle><circle r="5.5" cx="613" cy="208" stroke-width="2" stroke="hsl(216, 50%, 50%)" fill="none" opacity="0.17"></circle><circle r="7.5" cx="423" cy="230" stroke-width="2" stroke="hsl(215, 50%, 50%)" fill="none" opacity="0.13"></circle><circle r="5.5" cx="119" cy="233" fill="hsl(216, 50%, 50%)" opacity="0.70"></circle><circle r="5.5" cx="296" cy="779" fill="hsl(216, 50%, 50%)" opacity="0.99"></circle><circle r="6" cx="699" cy="172" fill="hsl(216, 50%, 50%)" opacity="0.58"></circle><circle r="6.5" cx="473" cy="118" stroke-width="2" stroke="hsl(216, 50%, 50%)" fill="none" opacity="0.64"></circle><circle r="7.5" cx="504" cy="526" fill="hsl(215, 50%, 50%)" opacity="0.69"></circle><circle r="8.5" cx="753" cy="745" stroke-width="2" stroke="hsl(215, 50%, 50%)" fill="none" opacity="0.48"></circle><circle r="7" cx="719" cy="363" fill="hsl(215, 50%, 50%)" opacity="0.24"></circle><circle r="6.5" cx="607" cy="510" fill="hsl(216, 50%, 50%)" opacity="0.21"></circle><circle r="6.5" cx="479" cy="47" stroke-width="2" stroke="hsl(216, 50%, 50%)" fill="none" opacity="0.45"></circle><circle r="7" cx="641" cy="652" stroke-width="2" stroke="hsl(216, 50%, 50%)" fill="none" opacity="0.91"></circle><circle r="7" cx="456" cy="230" fill="hsl(215, 50%, 50%)" opacity="0.78"></circle><circle r="8" cx="713" cy="78" stroke-width="2" stroke="hsl(215, 50%, 50%)" fill="none" opacity="0.91"></circle><circle r="4.5" cx="222" cy="700" stroke-width="2" stroke="hsl(217, 50%, 50%)" fill="none" opacity="0.74"></circle><circle r="7" cx="406" cy="470" fill="hsl(215, 50%, 50%)" opacity="0.41"></circle><circle r="6" cx="555" cy="13" stroke-width="2" stroke="hsl(215, 50%, 50%)" fill="none" opacity="0.67"></circle><circle r="7.5" cx="717" cy="747" stroke-width="2" stroke="hsl(215, 50%, 50%)" fill="none" opacity="0.87"></circle><circle r="6.5" cx="601" cy="711" stroke-width="2" stroke="hsl(216, 50%, 50%)" fill="none" opacity="0.58"></circle><circle r="7.5" cx="52" cy="696" stroke-width="2" stroke="hsl(215, 50%, 50%)" fill="none" opacity="0.39"></circle><circle r="8" cx="761" cy="475" stroke-width="2" stroke="hsl(215, 50%, 50%)" fill="none" opacity="0.43"></circle><circle r="8.5" cx="16" cy="328" stroke-width="2" stroke="hsl(214, 50%, 50%)" fill="none" opacity="0.85"></circle><circle r="6" cx="555" cy="334" stroke-width="2" stroke="hsl(215, 50%, 50%)" fill="none" opacity="0.45"></circle><circle r="8" cx="500" cy="717" fill="hsl(215, 50%, 50%)" opacity="0.80"></circle><circle r="9.5" cx="15" cy="239" stroke-width="2" stroke="hsl(214, 50%, 50%)" fill="none" opacity="0.33"></circle><circle r="5" cx="267" cy="614" fill="hsl(217, 50%, 50%)" opacity="0.81"></circle><circle r="6.5" cx="681" cy="598" fill="hsl(216, 50%, 50%)" opacity="0.57"></circle><circle r="5.5" cx="363" cy="50" fill="hsl(217, 50%, 50%)" opacity="0.67"></circle><circle r="6.5" cx="591" cy="474" stroke-width="2" stroke="hsl(216, 50%, 50%)" fill="none" opacity="0.97"></circle><circle r="6" cx="369" cy="532" stroke-width="2" stroke="hsl(216, 50%, 50%)" fill="none" opacity="0.42"></circle><circle r="10" cx="17" cy="630" stroke-width="2" stroke="hsl(214, 50%, 50%)" fill="none" opacity="0.92"></circle><circle r="7" cx="366" cy="744" stroke-width="2" stroke="hsl(216, 50%, 50%)" fill="none" opacity="0.47"></circle><circle r="8.5" cx="784" cy="729" fill="hsl(214, 50%, 50%)" opacity="0.82"></circle><circle r="7" cx="678" cy="80" stroke-width="2" stroke="hsl(215, 50%, 50%)" fill="none" opacity="0.21"></circle><circle r="5.5" cx="147" cy="701" fill="hsl(216, 50%, 50%)" opacity="0.77"></circle><circle r="4" cx="225" cy="188" stroke-width="2" stroke="hsl(217, 50%, 50%)" fill="none" opacity="0.80"></circle><circle r="5.5" cx="336" cy="684" fill="hsl(216, 50%, 50%)" opacity="0.73"></circle><circle r="6.5" cx="698" cy="783" fill="hsl(216, 50%, 50%)" opacity="0.26"></circle><circle r="6.5" cx="50" cy="357" fill="hsl(215, 50%, 50%)" opacity="0.63"></circle><circle r="6" cx="349" cy="374" stroke-width="2" stroke="hsl(216, 50%, 50%)" fill="none" opacity="0.14"></circle><circle r="5.5" cx="124" cy="785" stroke-width="2" stroke="hsl(216, 50%, 50%)" fill="none" opacity="0.63"></circle><circle r="7.5" cx="13" cy="116" fill="hsl(215, 50%, 50%)" opacity="0.86"></circle><circle r="5" cx="359" cy="269" fill="hsl(216, 50%, 50%)" opacity="0.68"></circle><circle r="8" cx="472" cy="190" stroke-width="2" stroke="hsl(215, 50%, 50%)" fill="none" opacity="0.16"></circle><circle r="4.5" cx="212" cy="670" fill="hsl(217, 50%, 50%)" opacity="0.93"></circle><circle r="6.5" cx="68" cy="440" stroke-width="2" stroke="hsl(215, 50%, 50%)" fill="none" opacity="0.97"></circle><circle r="6" cx="678" cy="750" stroke-width="2" stroke="hsl(216, 50%, 50%)" fill="none" opacity="0.25"></circle><circle r="6.5" cx="657" cy="457" stroke-width="2" stroke="hsl(216, 50%, 50%)" fill="none" opacity="0.14"></circle><circle r="5" cx="331" cy="785" fill="hsl(216, 50%, 50%)" opacity="0.11"></circle><circle r="5" cx="272" cy="440" fill="hsl(217, 50%, 50%)" opacity="0.61"></circle><circle r="8.5" cx="754" cy="137" fill="hsl(215, 50%, 50%)" opacity="0.86"></circle><circle r="4" cx="252" cy="233" fill="hsl(217, 50%, 50%)" opacity="0.13"></circle><circle r="6" cx="377" cy="502" stroke-width="2" stroke="hsl(216, 50%, 50%)" fill="none" opacity="0.38"></circle><circle r="6" cx="679" cy="275" stroke-width="2" stroke="hsl(216, 50%, 50%)" fill="none" opacity="0.72"></circle><circle r="7" cx="470" cy="264" stroke-width="2" stroke="hsl(215, 50%, 50%)" fill="none" opacity="0.18"></circle><circle r="7.5" cx="473" cy="473" fill="hsl(215, 50%, 50%)" opacity="0.85"></circle><circle r="4" cx="235" cy="346" fill="hsl(217, 50%, 50%)" opacity="0.16"></circle><circle r="10.5" cx="781" cy="546" fill="hsl(214, 50%, 50%)" opacity="0.25"></circle><circle r="5" cx="178" cy="459" fill="hsl(217, 50%, 50%)" opacity="0.57"></circle><circle r="7.5" cx="470" cy="332" fill="hsl(215, 50%, 50%)" opacity="0.90"></circle><circle r="6.5" cx="552" cy="278" stroke-width="2" stroke="hsl(215, 50%, 50%)" fill="none" opacity="0.45"></circle><circle r="5.5" cx="333" cy="648" stroke-width="2" stroke="hsl(216, 50%, 50%)" fill="none" opacity="0.28"></circle><circle r="7.5" cx="44" cy="50" stroke-width="2" stroke="hsl(215, 50%, 50%)" fill="none" opacity="0.31"></circle><circle r="4" cx="230" cy="13" fill="hsl(216, 50%, 50%)" opacity="0.66"></circle><circle r="6" cx="127" cy="492" fill="hsl(216, 50%, 50%)" opacity="0.16"></circle><circle r="4.5" cx="228" cy="156" fill="hsl(217, 50%, 50%)" opacity="0.53"></circle><circle r="5.5" cx="370" cy="122" stroke-width="2" stroke="hsl(216, 50%, 50%)" fill="none" opacity="0.44"></circle><circle r="8.5" cx="751" cy="244" fill="hsl(215, 50%, 50%)" opacity="0.37"></circle><circle r="7" cx="548" cy="461" fill="hsl(215, 50%, 50%)" opacity="0.42"></circle><circle r="4.5" cx="194" cy="725" fill="hsl(217, 50%, 50%)" opacity="0.84"></circle><circle r="6.5" cx="56" cy="329" stroke-width="2" stroke="hsl(215, 50%, 50%)" fill="none" opacity="0.13"></circle><circle r="9.5" cx="752" cy="617" stroke-width="2" stroke="hsl(215, 50%, 50%)" fill="none" opacity="0.81"></circle><circle r="4.5" cx="270" cy="651" fill="hsl(217, 50%, 50%)" opacity="0.34"></circle><circle r="7.5" cx="418" cy="619" stroke-width="2" stroke="hsl(215, 50%, 50%)" fill="none" opacity="0.65"></circle><circle r="5.5" cx="148" cy="664" stroke-width="2" stroke="hsl(216, 50%, 50%)" fill="none" opacity="0.95"></circle><circle r="4.5" cx="264" cy="70" stroke-width="2" stroke="hsl(216, 50%, 50%)" fill="none" opacity="0.40"></circle><circle r="6" cx="119" cy="752" fill="hsl(216, 50%, 50%)" opacity="0.96"></circle><circle r="7" cx="399" cy="728" fill="hsl(215, 50%, 50%)" opacity="0.33"></circle><circle r="8" cx="785" cy="193" fill="hsl(214, 50%, 50%)" opacity="0.62"></circle><circle r="8" cx="49" cy="738" fill="hsl(215, 50%, 50%)" opacity="0.50"></circle><circle r="7" cx="111" cy="526" stroke-width="2" stroke="hsl(216, 50%, 50%)" fill="none" opacity="0.14"></circle><circle r="6.5" cx="498" cy="137" stroke-width="2" stroke="hsl(215, 50%, 50%)" fill="none" opacity="1.00"></circle><circle r="5.5" cx="165" cy="85" stroke-width="2" stroke="hsl(216, 50%, 50%)" fill="none" opacity="0.38"></circle><circle r="8" cx="49" cy="498" fill="hsl(215, 50%, 50%)" opacity="0.41"></circle></svg>