<svg xmlns="http://www.w3.org/2000/svg" version="1.1" xmlns:xlink="http://www.w3.org/1999/xlink" xmlns:svgjs="http://svgjs.dev/svgjs" viewBox="0 0 1422 800"><circle r="6" cx="114" cy="426" stroke-width="2" stroke="hsl(217, 50%, 50%)" fill="none" opacity="0.50"></circle><circle r="12" cx="1043" cy="234" stroke-width="2" stroke="hsl(214, 50%, 50%)" fill="none" opacity="0.50"></circle><circle r="12.5" cx="1192" cy="736" fill="hsl(213, 50%, 50%)" opacity="0.95"></circle><circle r="14.5" cx="1238" cy="633" stroke-width="2" stroke="hsl(214, 50%, 50%)" fill="none" opacity="0.86"></circle><circle r="12" cx="795" cy="612" fill="hsl(215, 50%, 50%)" opacity="0.59"></circle><circle r="8" cx="128" cy="68" stroke-width="2" stroke="hsl(216, 50%, 50%)" fill="none" opacity="0.12"></circle><circle r="13" cx="1189" cy="348" stroke-width="2" stroke="hsl(213, 50%, 50%)" fill="none" opacity="0.93"></circle><circle r="11" cx="636" cy="180" fill="hsl(214, 50%, 50%)" opacity="0.81"></circle><circle r="7.5" cx="385" cy="76" stroke-width="2" stroke="hsl(216, 50%, 50%)" fill="none" opacity="0.13"></circle><circle r="10.5" cx="642" cy="286" fill="hsl(214, 50%, 50%)" opacity="0.39"></circle><circle r="7" cx="68" cy="429" fill="hsl(216, 50%, 50%)" opacity="0.38"></circle><circle r="11" cx="1298" cy="370" stroke-width="2" stroke="hsl(214, 50%, 50%)" fill="none" opacity="0.77"></circle><circle r="7" cx="248" cy="731" stroke-width="2" stroke="hsl(217, 50%, 50%)" fill="none" opacity="0.42"></circle><circle r="8" cx="22" cy="632" fill="hsl(216, 50%, 50%)" opacity="0.54"></circle><circle r="10" cx="1400" cy="249" stroke-width="2" stroke="hsl(215, 50%, 50%)" fill="none" opacity="0.60"></circle><circle r="6" cx="146" cy="198" fill="hsl(217, 50%, 50%)" opacity="0.60"></circle><circle r="10.5" cx="810" cy="564" fill="hsl(215, 50%, 50%)" opacity="0.23"></circle><circle r="6.5" cx="291" cy="261" stroke-width="2" stroke="hsl(216, 50%, 50%)" fill="none" opacity="0.14"></circle><circle r="6.5" cx="304" cy="336" fill="hsl(216, 50%, 50%)" opacity="0.82"></circle><circle r="6" cx="184" cy="397" fill="hsl(217, 50%, 50%)" opacity="0.94"></circle><circle r="7" cx="318" cy="20" stroke-width="2" stroke="hsl(216, 50%, 50%)" fill="none" opacity="0.94"></circle><circle r="7" cx="282" cy="510" fill="hsl(216, 50%, 50%)" opacity="0.96"></circle><circle r="12.5" cx="806" cy="773" stroke-width="2" stroke="hsl(215, 50%, 50%)" fill="none" opacity="0.97"></circle><circle r="13.5" cx="1119" cy="699" stroke-width="2" stroke="hsl(214, 50%, 50%)" fill="none" opacity="0.23"></circle><circle r="10" cx="506" cy="419" fill="hsl(214, 50%, 50%)" opacity="0.68"></circle><circle r="10.5" cx="505" cy="377" fill="hsl(214, 50%, 50%)" opacity="0.43"></circle><circle r="9" cx="399" cy="420" fill="hsl(215, 50%, 50%)" opacity="0.20"></circle><circle r="11" cx="521" cy="534" stroke-width="2" stroke="hsl(214, 50%, 50%)" fill="none" opacity="0.11"></circle><circle r="8.5" cx="360" cy="407" fill="hsl(216, 50%, 50%)" opacity="0.33"></circle><circle r="12.5" cx="1028" cy="451" fill="hsl(214, 50%, 50%)" opacity="0.73"></circle><circle r="11" cx="530" cy="300" stroke-width="2" stroke="hsl(214, 50%, 50%)" fill="none" opacity="0.56"></circle><circle r="14" cx="1125" cy="181" stroke-width="2" stroke="hsl(214, 50%, 50%)" fill="none" opacity="0.84"></circle><circle r="10.5" cx="537" cy="447" stroke-width="2" stroke="hsl(214, 50%, 50%)" fill="none" opacity="0.30"></circle><circle r="9.5" cx="680" cy="93" stroke-width="2" stroke="hsl(215, 50%, 50%)" fill="none" opacity="0.81"></circle><circle r="10" cx="650" cy="450" fill="hsl(214, 50%, 50%)" opacity="0.40"></circle><circle r="11" cx="879" cy="667" fill="hsl(215, 50%, 50%)" opacity="0.83"></circle><circle r="12.5" cx="1214" cy="178" fill="hsl(214, 50%, 50%)" opacity="0.41"></circle><circle r="10.5" cx="1398" cy="159" stroke-width="2" stroke="hsl(215, 50%, 50%)" fill="none" opacity="0.77"></circle><circle r="11" cx="1358" cy="230" fill="hsl(215, 50%, 50%)" opacity="0.13"></circle><circle r="11.5" cx="642" cy="778" stroke-width="2" stroke="hsl(214, 50%, 50%)" fill="none" opacity="0.21"></circle><circle r="6" cx="208" cy="285" stroke-width="2" stroke="hsl(217, 50%, 50%)" fill="none" opacity="0.15"></circle><circle r="7.5" cx="315" cy="485" fill="hsl(216, 50%, 50%)" opacity="0.95"></circle><circle r="10.5" cx="854" cy="735" stroke-width="2" stroke="hsl(215, 50%, 50%)" fill="none" opacity="0.50"></circle><circle r="11.5" cx="1352" cy="494" stroke-width="2" stroke="hsl(214, 50%, 50%)" fill="none" opacity="0.46"></circle><circle r="11" cx="473" cy="706" fill="hsl(215, 50%, 50%)" opacity="0.47"></circle><circle r="7.5" cx="23" cy="733" fill="hsl(216, 50%, 50%)" opacity="0.73"></circle><circle r="12" cx="575" cy="609" fill="hsl(214, 50%, 50%)" opacity="0.19"></circle><circle r="12" cx="525" cy="207" fill="hsl(214, 50%, 50%)" opacity="0.97"></circle><circle r="12" cx="1142" cy="542" fill="hsl(213, 50%, 50%)" opacity="0.50"></circle><circle r="9.5" cx="458" cy="147" stroke-width="2" stroke="hsl(215, 50%, 50%)" fill="none" opacity="0.88"></circle><circle r="14" cx="1167" cy="157" fill="hsl(214, 50%, 50%)" opacity="0.58"></circle><circle r="11" cx="478" cy="198" stroke-width="2" stroke="hsl(215, 50%, 50%)" fill="none" opacity="0.28"></circle><circle r="13" cx="1319" cy="580" fill="hsl(214, 50%, 50%)" opacity="0.69"></circle><circle r="9.5" cx="1365" cy="330" fill="hsl(215, 50%, 50%)" opacity="0.57"></circle><circle r="12.5" cx="996" cy="264" stroke-width="2" stroke="hsl(214, 50%, 50%)" fill="none" opacity="0.42"></circle><circle r="11" cx="795" cy="333" stroke-width="2" stroke="hsl(215, 50%, 50%)" fill="none" opacity="0.19"></circle><circle r="12.5" cx="1008" cy="360" fill="hsl(214, 50%, 50%)" opacity="0.95"></circle><circle r="12" cx="1303" cy="778" fill="hsl(214, 50%, 50%)" opacity="0.70"></circle><circle r="12.5" cx="1038" cy="400" fill="hsl(214, 50%, 50%)" opacity="0.44"></circle><circle r="10" cx="451" cy="565" fill="hsl(215, 50%, 50%)" opacity="0.53"></circle><circle r="8" cx="849" cy="26" stroke-width="2" stroke="hsl(216, 50%, 50%)" fill="none" opacity="0.74"></circle><circle r="12.5" cx="1163" cy="304" stroke-width="2" stroke="hsl(213, 50%, 50%)" fill="none" opacity="0.59"></circle><circle r="12" cx="1352" cy="137" fill="hsl(214, 50%, 50%)" opacity="0.50"></circle><circle r="13" cx="1118" cy="432" stroke-width="2" stroke="hsl(214, 50%, 50%)" fill="none" opacity="0.75"></circle><circle r="11" cx="1207" cy="96" fill="hsl(214, 50%, 50%)" opacity="0.15"></circle><circle r="6.5" cx="267" cy="461" stroke-width="2" stroke="hsl(216, 50%, 50%)" fill="none" opacity="0.99"></circle><circle r="13.5" cx="1207" cy="679" stroke-width="2" stroke="hsl(214, 50%, 50%)" fill="none" opacity="0.43"></circle><circle r="6" cx="96" cy="294" stroke-width="2" stroke="hsl(217, 50%, 50%)" fill="none" opacity="0.51"></circle><circle r="11.5" cx="942" cy="273" stroke-width="2" stroke="hsl(214, 50%, 50%)" fill="none" opacity="0.42"></circle><circle r="6.5" cx="237" cy="599" fill="hsl(217, 50%, 50%)" opacity="0.24"></circle><circle r="12.5" cx="613" cy="643" stroke-width="2" stroke="hsl(214, 50%, 50%)" fill="none" opacity="0.29"></circle><circle r="12" cx="899" cy="712" stroke-width="2" stroke="hsl(215, 50%, 50%)" fill="none" opacity="0.65"></circle><circle r="11.5" cx="980" cy="310" fill="hsl(214, 50%, 50%)" opacity="0.38"></circle><circle r="12" cx="1016" cy="621" stroke-width="2" stroke="hsl(214, 50%, 50%)" fill="none" opacity="0.54"></circle><circle r="6.5" cx="178" cy="103" fill="hsl(217, 50%, 50%)" opacity="0.87"></circle><circle r="7.5" cx="292" cy="189" stroke-width="2" stroke="hsl(216, 50%, 50%)" fill="none" opacity="0.45"></circle><circle r="10.5" cx="1079" cy="58" fill="hsl(215, 50%, 50%)" opacity="0.85"></circle><circle r="12" cx="1177" cy="63" stroke-width="2" stroke="hsl(214, 50%, 50%)" fill="none" opacity="0.39"></circle><circle r="12.5" cx="1133" cy="270" stroke-width="2" stroke="hsl(214, 50%, 50%)" fill="none" opacity="0.33"></circle><circle r="12.5" cx="1323" cy="310" stroke-width="2" stroke="hsl(214, 50%, 50%)" fill="none" opacity="0.89"></circle><circle r="5" cx="177" cy="307" fill="hsl(217, 50%, 50%)" opacity="0.98"></circle><circle r="11.5" cx="653" cy="330" stroke-width="2" stroke="hsl(214, 50%, 50%)" fill="none" opacity="0.57"></circle><circle r="11.5" cx="1007" cy="155" fill="hsl(215, 50%, 50%)" opacity="0.54"></circle><circle r="11.5" cx="578" cy="196" fill="hsl(214, 50%, 50%)" opacity="0.92"></circle><circle r="9" cx="1402" cy="607" stroke-width="2" stroke="hsl(215, 50%, 50%)" fill="none" opacity="0.68"></circle><circle r="11" cx="1289" cy="277" stroke-width="2" stroke="hsl(214, 50%, 50%)" fill="none" opacity="0.64"></circle><circle r="10.5" cx="689" cy="143" stroke-width="2" stroke="hsl(215, 50%, 50%)" fill="none" opacity="0.41"></circle><circle r="11.5" cx="714" cy="402" stroke-width="2" stroke="hsl(214, 50%, 50%)" fill="none" opacity="0.25"></circle><circle r="10" cx="428" cy="382" stroke-width="2" stroke="hsl(215, 50%, 50%)" fill="none" opacity="0.33"></circle><circle r="10.5" cx="800" cy="230" stroke-width="2" stroke="hsl(215, 50%, 50%)" fill="none" opacity="0.92"></circle><circle r="9.5" cx="440" cy="733" fill="hsl(215, 50%, 50%)" opacity="0.92"></circle><circle r="9" cx="77" cy="77" stroke-width="2" stroke="hsl(216, 50%, 50%)" fill="none" opacity="0.99"></circle><circle r="12.5" cx="1128" cy="228" stroke-width="2" stroke="hsl(214, 50%, 50%)" fill="none" opacity="0.67"></circle><circle r="12" cx="657" cy="240" fill="hsl(214, 50%, 50%)" opacity="0.30"></circle><circle r="8" cx="389" cy="376" fill="hsl(215, 50%, 50%)" opacity="0.70"></circle><circle r="6.5" cx="167" cy="250" stroke-width="2" stroke="hsl(217, 50%, 50%)" fill="none" opacity="0.84"></circle><circle r="11.5" cx="876" cy="198" fill="hsl(215, 50%, 50%)" opacity="0.30"></circle><circle r="11.5" cx="1355" cy="775" fill="hsl(214, 50%, 50%)" opacity="0.85"></circle><circle r="12" cx="1024" cy="316" fill="hsl(214, 50%, 50%)" opacity="0.78"></circle><circle r="11" cx="532" cy="633" stroke-width="2" stroke="hsl(214, 50%, 50%)" fill="none" opacity="0.45"></circle><circle r="12" cx="986" cy="585" stroke-width="2" stroke="hsl(214, 50%, 50%)" fill="none" opacity="0.97"></circle><circle r="12.5" cx="666" cy="737" fill="hsl(214, 50%, 50%)" opacity="0.55"></circle><circle r="12.5" cx="1246" cy="582" stroke-width="2" stroke="hsl(214, 50%, 50%)" fill="none" opacity="0.76"></circle><circle r="12" cx="1121" cy="131" fill="hsl(214, 50%, 50%)" opacity="0.13"></circle><circle r="7" cx="281" cy="600" stroke-width="2" stroke="hsl(216, 50%, 50%)" fill="none" opacity="0.91"></circle><circle r="11.5" cx="995" cy="499" fill="hsl(214, 50%, 50%)" opacity="0.32"></circle><circle r="6.5" cx="240" cy="318" stroke-width="2" stroke="hsl(217, 50%, 50%)" fill="none" opacity="0.22"></circle><circle r="10" cx="758" cy="417" stroke-width="2" stroke="hsl(215, 50%, 50%)" fill="none" opacity="0.99"></circle><circle r="7.5" cx="316" cy="142" fill="hsl(216, 50%, 50%)" opacity="0.17"></circle><circle r="9" cx="789" cy="502" stroke-width="2" stroke="hsl(215, 50%, 50%)" fill="none" opacity="0.38"></circle><circle r="11.5" cx="1351" cy="88" fill="hsl(215, 50%, 50%)" opacity="0.62"></circle><circle r="12.5" cx="28" cy="28" stroke-width="2" stroke="hsl(215, 50%, 50%)" fill="none" opacity="0.48"></circle><circle r="6" cx="136" cy="389" fill="hsl(217, 50%, 50%)" opacity="0.76"></circle><circle r="7" cx="63" cy="523" stroke-width="2" stroke="hsl(216, 50%, 50%)" fill="none" opacity="0.65"></circle><circle r="6.5" cx="193" cy="732" stroke-width="2" stroke="hsl(217, 50%, 50%)" fill="none" opacity="0.62"></circle><circle r="6.5" cx="81" cy="566" stroke-width="2" stroke="hsl(216, 50%, 50%)" fill="none" opacity="0.29"></circle><circle r="7" cx="68" cy="240" stroke-width="2" stroke="hsl(216, 50%, 50%)" fill="none" opacity="0.50"></circle><circle r="11" cx="1300" cy="79" fill="hsl(214, 50%, 50%)" opacity="0.76"></circle><circle r="10.5" cx="713" cy="489" fill="hsl(214, 50%, 50%)" opacity="0.83"></circle><circle r="12" cx="574" cy="555" stroke-width="2" stroke="hsl(214, 50%, 50%)" fill="none" opacity="0.54"></circle><circle r="11" cx="814" cy="283" fill="hsl(215, 50%, 50%)" opacity="0.58"></circle><circle r="12.5" cx="1082" cy="393" stroke-width="2" stroke="hsl(214, 50%, 50%)" fill="none" opacity="0.90"></circle><circle r="10" cx="84" cy="25" fill="hsl(215, 50%, 50%)" opacity="0.53"></circle><circle r="13" cx="1072" cy="310" stroke-width="2" stroke="hsl(214, 50%, 50%)" fill="none" opacity="0.80"></circle><circle r="13" cx="1035" cy="680" fill="hsl(214, 50%, 50%)" opacity="0.40"></circle><circle r="11" cx="25" cy="85" fill="hsl(215, 50%, 50%)" opacity="0.57"></circle><circle r="13" cx="1157" cy="502" fill="hsl(213, 50%, 50%)" opacity="0.26"></circle><circle r="6" cx="210" cy="564" stroke-width="2" stroke="hsl(217, 50%, 50%)" fill="none" opacity="0.77"></circle><circle r="6.5" cx="320" cy="408" stroke-width="2" stroke="hsl(216, 50%, 50%)" fill="none" opacity="0.91"></circle><circle r="11.5" cx="552" cy="703" fill="hsl(214, 50%, 50%)" opacity="0.64"></circle><circle r="13" cx="1263" cy="242" fill="hsl(214, 50%, 50%)" opacity="0.77"></circle><circle r="9" cx="895" cy="25" stroke-width="2" stroke="hsl(216, 50%, 50%)" fill="none" opacity="0.76"></circle></svg>