<svg xmlns="http://www.w3.org/2000/svg" version="1.1" xmlns:xlink="http://www.w3.org/1999/xlink" xmlns:svgjs="http://svgjs.dev/svgjs" viewBox="0 0 640 800"><circle r="6.5" cx="571" cy="116" fill="hsl(215, 50%, 50%)" opacity="0.88"></circle><circle r="8.5" cx="372" cy="502" fill="hsl(214, 50%, 50%)" opacity="0.63"></circle><circle r="7.5" cx="112" cy="265" fill="hsl(214, 50%, 50%)" opacity="0.87"></circle><circle r="10" cx="457" cy="692" fill="hsl(213, 50%, 50%)" opacity="0.63"></circle><circle r="10.5" cx="540" cy="349" stroke-width="2" stroke="hsl(213, 50%, 50%)" fill="none" opacity="0.13"></circle><circle r="8.5" cx="394" cy="132" stroke-width="2" stroke="hsl(214, 50%, 50%)" fill="none" opacity="0.64"></circle><circle r="6" cx="14" cy="472" fill="hsl(215, 50%, 50%)" opacity="0.38"></circle><circle r="9" cx="337" cy="366" stroke-width="2" stroke="hsl(213, 50%, 50%)" fill="none" opacity="0.40"></circle><circle r="9" cx="220" cy="119" stroke-width="2" stroke="hsl(213, 50%, 50%)" fill="none" opacity="0.53"></circle><circle r="9.5" cx="327" cy="632" fill="hsl(213, 50%, 50%)" opacity="0.34"></circle><circle r="9.5" cx="305" cy="305" fill="hsl(213, 50%, 50%)" opacity="0.70"></circle><circle r="8" cx="500" cy="72" stroke-width="2" stroke="hsl(214, 50%, 50%)" fill="none" opacity="0.35"></circle><circle r="7" cx="627" cy="514" stroke-width="2" stroke="hsl(214, 50%, 50%)" fill="none" opacity="0.91"></circle><circle r="7.5" cx="61" cy="603" stroke-width="2" stroke="hsl(215, 50%, 50%)" fill="none" opacity="0.12"></circle><circle r="8.5" cx="570" cy="178" fill="hsl(213, 50%, 50%)" opacity="0.79"></circle><circle r="9" cx="516" cy="108" stroke-width="2" stroke="hsl(214, 50%, 50%)" fill="none" opacity="0.94"></circle><circle r="8.5" cx="163" cy="73" stroke-width="2" stroke="hsl(214, 50%, 50%)" fill="none" opacity="0.93"></circle><circle r="9" cx="235" cy="683" fill="hsl(213, 50%, 50%)" opacity="0.11"></circle><circle r="6.5" cx="15" cy="440" stroke-width="2" stroke="hsl(215, 50%, 50%)" fill="none" opacity="0.89"></circle><circle r="8.5" cx="144" cy="318" stroke-width="2" stroke="hsl(214, 50%, 50%)" fill="none" opacity="0.71"></circle><circle r="9.5" cx="510" cy="439" fill="hsl(213, 50%, 50%)" opacity="0.68"></circle><circle r="8.5" cx="142" cy="491" fill="hsl(214, 50%, 50%)" opacity="0.86"></circle><circle r="7" cx="47" cy="540" fill="hsl(215, 50%, 50%)" opacity="0.31"></circle><circle r="6" cx="16" cy="123" stroke-width="2" stroke="hsl(216, 50%, 50%)" fill="none" opacity="0.23"></circle><circle r="10" cx="474" cy="292" stroke-width="2" stroke="hsl(213, 50%, 50%)" fill="none" opacity="0.75"></circle><circle r="9" cx="573" cy="514" stroke-width="2" stroke="hsl(213, 50%, 50%)" fill="none" opacity="0.29"></circle><circle r="8.5" cx="162" cy="287" fill="hsl(214, 50%, 50%)" opacity="0.74"></circle><circle r="9" cx="422" cy="695" stroke-width="2" stroke="hsl(213, 50%, 50%)" fill="none" opacity="0.52"></circle><circle r="8.5" cx="142" cy="522" fill="hsl(214, 50%, 50%)" opacity="0.40"></circle><circle r="7.5" cx="625" cy="298" fill="hsl(214, 50%, 50%)" opacity="0.83"></circle><circle r="9.5" cx="448" cy="46" stroke-width="2" stroke="hsl(214, 50%, 50%)" fill="none" opacity="0.84"></circle><circle r="9.5" cx="390" cy="696" fill="hsl(214, 50%, 50%)" opacity="0.51"></circle><circle r="7.5" cx="626" cy="358" stroke-width="2" stroke="hsl(214, 50%, 50%)" fill="none" opacity="0.81"></circle><circle r="9" cx="484" cy="43" stroke-width="2" stroke="hsl(214, 50%, 50%)" fill="none" opacity="0.52"></circle><circle r="8.5" cx="288" cy="787" stroke-width="2" stroke="hsl(213, 50%, 50%)" fill="none" opacity="0.91"></circle><circle r="10" cx="277" cy="478" fill="hsl(213, 50%, 50%)" opacity="0.32"></circle><circle r="9.5" cx="513" cy="275" stroke-width="2" stroke="hsl(213, 50%, 50%)" fill="none" opacity="0.73"></circle><circle r="8" cx="426" cy="442" fill="hsl(213, 50%, 50%)" opacity="0.15"></circle><circle r="9" cx="375" cy="357" stroke-width="2" stroke="hsl(214, 50%, 50%)" fill="none" opacity="0.49"></circle><circle r="9.5" cx="459" cy="515" stroke-width="2" stroke="hsl(213, 50%, 50%)" fill="none" opacity="0.25"></circle><circle r="10" cx="480" cy="535" fill="hsl(213, 50%, 50%)" opacity="0.18"></circle><circle r="9.5" cx="592" cy="210" stroke-width="2" stroke="hsl(213, 50%, 50%)" fill="none" opacity="0.84"></circle><circle r="9.5" cx="588" cy="485" fill="hsl(213, 50%, 50%)" opacity="0.24"></circle><circle r="8" cx="625" cy="421" stroke-width="2" stroke="hsl(214, 50%, 50%)" fill="none" opacity="0.14"></circle><circle r="11" cx="503" cy="304" stroke-width="2" stroke="hsl(213, 50%, 50%)" fill="none" opacity="0.70"></circle><circle r="7" cx="42" cy="238" fill="hsl(215, 50%, 50%)" opacity="0.77"></circle><circle r="9" cx="467" cy="15" fill="hsl(214, 50%, 50%)" opacity="0.72"></circle><circle r="5" cx="602" cy="33" stroke-width="2" stroke="hsl(216, 50%, 50%)" fill="none" opacity="0.68"></circle><circle r="10" cx="311" cy="422" stroke-width="2" stroke="hsl(213, 50%, 50%)" fill="none" opacity="0.90"></circle><circle r="6" cx="596" cy="127" stroke-width="2" stroke="hsl(215, 50%, 50%)" fill="none" opacity="0.38"></circle><circle r="9" cx="406" cy="598" fill="hsl(213, 50%, 50%)" opacity="0.39"></circle><circle r="10" cx="540" cy="284" stroke-width="2" stroke="hsl(213, 50%, 50%)" fill="none" opacity="0.40"></circle><circle r="7" cx="77" cy="282" stroke-width="2" stroke="hsl(215, 50%, 50%)" fill="none" opacity="0.78"></circle><circle r="9.5" cx="546" cy="782" stroke-width="2" stroke="hsl(213, 50%, 50%)" fill="none" opacity="0.97"></circle><circle r="7" cx="627" cy="783" fill="hsl(214, 50%, 50%)" opacity="0.87"></circle><circle r="8" cx="404" cy="482" stroke-width="2" stroke="hsl(213, 50%, 50%)" fill="none" opacity="0.66"></circle><circle r="8.5" cx="257" cy="118" fill="hsl(213, 50%, 50%)" opacity="0.17"></circle><circle r="10.5" cx="550" cy="386" fill="hsl(213, 50%, 50%)" opacity="0.33"></circle><circle r="7" cx="352" cy="37" stroke-width="2" stroke="hsl(214, 50%, 50%)" fill="none" opacity="0.20"></circle><circle r="9" cx="179" cy="784" stroke-width="2" stroke="hsl(214, 50%, 50%)" fill="none" opacity="0.10"></circle><circle r="9.5" cx="319" cy="182" fill="hsl(213, 50%, 50%)" opacity="0.13"></circle><circle r="7" cx="77" cy="531" fill="hsl(215, 50%, 50%)" opacity="0.70"></circle><circle r="7" cx="627" cy="616" stroke-width="2" stroke="hsl(214, 50%, 50%)" fill="none" opacity="0.57"></circle><circle r="9.5" cx="490" cy="650" stroke-width="2" stroke="hsl(213, 50%, 50%)" fill="none" opacity="0.22"></circle><circle r="6.5" cx="602" cy="152" stroke-width="2" stroke="hsl(215, 50%, 50%)" fill="none" opacity="0.36"></circle><circle r="10" cx="206" cy="632" stroke-width="2" stroke="hsl(213, 50%, 50%)" fill="none" opacity="0.61"></circle><circle r="10.5" cx="542" cy="654" fill="hsl(213, 50%, 50%)" opacity="0.37"></circle><circle r="8.5" cx="305" cy="732" fill="hsl(213, 50%, 50%)" opacity="0.60"></circle><circle r="8.5" cx="371" cy="410" fill="hsl(214, 50%, 50%)" opacity="0.51"></circle><circle r="9" cx="273" cy="629" fill="hsl(213, 50%, 50%)" opacity="0.60"></circle><circle r="9" cx="436" cy="670" fill="hsl(213, 50%, 50%)" opacity="0.51"></circle><circle r="5" cx="627" cy="126" stroke-width="2" stroke="hsl(216, 50%, 50%)" fill="none" opacity="0.59"></circle><circle r="9" cx="466" cy="73" fill="hsl(214, 50%, 50%)" opacity="0.68"></circle><circle r="7" cx="626" cy="244" fill="hsl(214, 50%, 50%)" opacity="0.13"></circle><circle r="6.5" cx="19" cy="754" stroke-width="2" stroke="hsl(215, 50%, 50%)" fill="none" opacity="0.76"></circle><circle r="8.5" cx="357" cy="214" fill="hsl(213, 50%, 50%)" opacity="0.18"></circle><circle r="10.5" cx="474" cy="206" stroke-width="2" stroke="hsl(213, 50%, 50%)" fill="none" opacity="0.66"></circle><circle r="9" cx="372" cy="289" fill="hsl(214, 50%, 50%)" opacity="0.33"></circle><circle r="8.5" cx="169" cy="105" stroke-width="2" stroke="hsl(214, 50%, 50%)" fill="none" opacity="0.22"></circle><circle r="9" cx="177" cy="320" stroke-width="2" stroke="hsl(214, 50%, 50%)" fill="none" opacity="0.16"></circle><circle r="9.5" cx="493" cy="782" stroke-width="2" stroke="hsl(213, 50%, 50%)" fill="none" opacity="0.12"></circle><circle r="10" cx="544" cy="592" stroke-width="2" stroke="hsl(213, 50%, 50%)" fill="none" opacity="0.16"></circle><circle r="9.5" cx="201" cy="515" fill="hsl(213, 50%, 50%)" opacity="0.93"></circle><circle r="9" cx="596" cy="278" fill="hsl(213, 50%, 50%)" opacity="0.50"></circle><circle r="10" cx="542" cy="742" fill="hsl(213, 50%, 50%)" opacity="0.31"></circle><circle r="9" cx="599" cy="370" stroke-width="2" stroke="hsl(213, 50%, 50%)" fill="none" opacity="0.55"></circle><circle r="9.5" cx="501" cy="181" fill="hsl(213, 50%, 50%)" opacity="0.56"></circle><circle r="8" cx="109" cy="543" fill="hsl(214, 50%, 50%)" opacity="0.90"></circle><circle r="11" cx="476" cy="327" stroke-width="2" stroke="hsl(213, 50%, 50%)" fill="none" opacity="0.52"></circle><circle r="8.5" cx="460" cy="738" fill="hsl(213, 50%, 50%)" opacity="0.56"></circle><circle r="9.5" cx="483" cy="445" stroke-width="2" stroke="hsl(213, 50%, 50%)" fill="none" opacity="0.86"></circle><circle r="7" cx="361" cy="788" fill="hsl(214, 50%, 50%)" opacity="0.38"></circle><circle r="9.5" cx="450" cy="308" fill="hsl(213, 50%, 50%)" opacity="0.22"></circle><circle r="10.5" cx="523" cy="500" stroke-width="2" stroke="hsl(213, 50%, 50%)" fill="none" opacity="0.69"></circle><circle r="7" cx="71" cy="410" stroke-width="2" stroke="hsl(215, 50%, 50%)" fill="none" opacity="0.42"></circle><circle r="9" cx="178" cy="642" stroke-width="2" stroke="hsl(214, 50%, 50%)" fill="none" opacity="0.35"></circle><circle r="9.5" cx="236" cy="255" fill="hsl(213, 50%, 50%)" opacity="0.91"></circle><circle r="9.5" cx="338" cy="158" stroke-width="2" stroke="hsl(213, 50%, 50%)" fill="none" opacity="0.67"></circle><circle r="7.5" cx="626" cy="191" stroke-width="2" stroke="hsl(214, 50%, 50%)" fill="none" opacity="0.93"></circle><circle r="7.5" cx="414" cy="783" stroke-width="2" stroke="hsl(213, 50%, 50%)" fill="none" opacity="0.12"></circle><circle r="9.5" cx="560" cy="203" fill="hsl(213, 50%, 50%)" opacity="0.58"></circle><circle r="8" cx="308" cy="766" stroke-width="2" stroke="hsl(213, 50%, 50%)" fill="none" opacity="0.73"></circle><circle r="6.5" cx="15" cy="654" fill="hsl(215, 50%, 50%)" opacity="0.24"></circle><circle r="9" cx="137" cy="195" stroke-width="2" stroke="hsl(214, 50%, 50%)" fill="none" opacity="0.43"></circle><circle r="9" cx="237" cy="198" fill="hsl(213, 50%, 50%)" opacity="0.59"></circle><circle r="8.5" cx="378" cy="108" stroke-width="2" stroke="hsl(214, 50%, 50%)" fill="none" opacity="0.70"></circle><circle r="10" cx="566" cy="297" stroke-width="2" stroke="hsl(213, 50%, 50%)" fill="none" opacity="0.79"></circle><circle r="9.5" cx="350" cy="127" stroke-width="2" stroke="hsl(214, 50%, 50%)" fill="none" opacity="0.61"></circle><circle r="7" cx="259" cy="40" fill="hsl(215, 50%, 50%)" opacity="0.91"></circle><circle r="8.5" cx="322" cy="331" fill="hsl(213, 50%, 50%)" opacity="0.19"></circle><circle r="9.5" cx="205" cy="253" fill="hsl(213, 50%, 50%)" opacity="0.44"></circle><circle r="8" cx="137" cy="460" stroke-width="2" stroke="hsl(214, 50%, 50%)" fill="none" opacity="0.55"></circle><circle r="10" cx="542" cy="622" stroke-width="2" stroke="hsl(213, 50%, 50%)" fill="none" opacity="0.89"></circle><circle r="10.5" cx="565" cy="328" stroke-width="2" stroke="hsl(213, 50%, 50%)" fill="none" opacity="0.13"></circle><circle r="6" cx="19" cy="593" fill="hsl(215, 50%, 50%)" opacity="0.62"></circle><circle r="8" cx="72" cy="221" fill="hsl(215, 50%, 50%)" opacity="0.26"></circle><circle r="8.5" cx="80" cy="720" stroke-width="2" stroke="hsl(215, 50%, 50%)" fill="none" opacity="0.39"></circle><circle r="8" cx="261" cy="91" stroke-width="2" stroke="hsl(214, 50%, 50%)" fill="none" opacity="0.36"></circle><circle r="9.5" cx="414" cy="49" stroke-width="2" stroke="hsl(214, 50%, 50%)" fill="none" opacity="0.65"></circle><circle r="10.5" cx="516" cy="640" stroke-width="2" stroke="hsl(213, 50%, 50%)" fill="none" opacity="0.74"></circle><circle r="10" cx="263" cy="216" stroke-width="2" stroke="hsl(213, 50%, 50%)" fill="none" opacity="0.64"></circle><circle r="9" cx="308" cy="360" stroke-width="2" stroke="hsl(213, 50%, 50%)" fill="none" opacity="0.58"></circle><circle r="10" cx="253" cy="539" fill="hsl(213, 50%, 50%)" opacity="0.85"></circle><circle r="10.5" cx="541" cy="252" stroke-width="2" stroke="hsl(213, 50%, 50%)" fill="none" opacity="0.76"></circle><circle r="7.5" cx="547" cy="98" fill="hsl(215, 50%, 50%)" opacity="0.31"></circle><circle r="10" cx="286" cy="594" stroke-width="2" stroke="hsl(213, 50%, 50%)" fill="none" opacity="0.66"></circle><circle r="8" cx="389" cy="784" fill="hsl(214, 50%, 50%)" opacity="0.16"></circle><circle r="9" cx="392" cy="386" stroke-width="2" stroke="hsl(213, 50%, 50%)" fill="none" opacity="0.91"></circle><circle r="7.5" cx="210" cy="57" stroke-width="2" stroke="hsl(214, 50%, 50%)" fill="none" opacity="0.86"></circle><circle r="8" cx="320" cy="79" fill="hsl(214, 50%, 50%)" opacity="0.92"></circle><circle r="10" cx="531" cy="187" fill="hsl(213, 50%, 50%)" opacity="0.51"></circle><circle r="8.5" cx="417" cy="551" fill="hsl(213, 50%, 50%)" opacity="0.47"></circle><circle r="8.5" cx="96" cy="660" fill="hsl(214, 50%, 50%)" opacity="0.12"></circle><circle r="9" cx="579" cy="730" fill="hsl(213, 50%, 50%)" opacity="0.53"></circle><circle r="10" cx="239" cy="572" fill="hsl(213, 50%, 50%)" opacity="0.90"></circle><circle r="7.5" cx="77" cy="155" fill="hsl(215, 50%, 50%)" opacity="0.20"></circle><circle r="9" cx="149" cy="784" fill="hsl(214, 50%, 50%)" opacity="0.11"></circle><circle r="8.5" cx="117" cy="572" fill="hsl(214, 50%, 50%)" opacity="0.44"></circle><circle r="8.5" cx="355" cy="694" fill="hsl(213, 50%, 50%)" opacity="0.12"></circle><circle r="11" cx="511" cy="530" fill="hsl(213, 50%, 50%)" opacity="0.85"></circle><circle r="10.5" cx="172" cy="183" fill="hsl(213, 50%, 50%)" opacity="0.62"></circle><circle r="7" cx="369" cy="13" fill="hsl(214, 50%, 50%)" opacity="0.56"></circle><circle r="7" cx="229" cy="38" fill="hsl(215, 50%, 50%)" opacity="0.36"></circle><circle r="9.5" cx="241" cy="629" stroke-width="2" stroke="hsl(213, 50%, 50%)" fill="none" opacity="0.57"></circle><circle r="8.5" cx="81" cy="783" stroke-width="2" stroke="hsl(214, 50%, 50%)" fill="none" opacity="0.84"></circle><circle r="9" cx="141" cy="700" fill="hsl(214, 50%, 50%)" opacity="0.91"></circle><circle r="8.5" cx="150" cy="587" fill="hsl(214, 50%, 50%)" opacity="0.61"></circle></svg>