<svg xmlns="http://www.w3.org/2000/svg" version="1.1" xmlns:xlink="http://www.w3.org/1999/xlink" xmlns:svgjs="http://svgjs.dev/svgjs" viewBox="0 0 2400 800" opacity="0.17"><g fill="#ffffffff" transform="matrix(1,0,0,1,-1.936279296875,161.99768829345703)"><path d="M-10,10C158.75,34.375,464.58333333333337,151.375,800,127C1135.4166666666665,102.625,1266.6666666666665,-95.75,1600,-107C1933.3333333333335,-118.25,2181.25,-32.625,2400,73C2618.75,178.625,3254.1666666666665,227.70833333333331,2650,400C2045.8333333333335,572.2916666666667,156.25,795.8333333333334,-500,900" transform="matrix(1,0,0,1,0,121)" opacity="0.05"></path><path d="M-10,10C158.75,34.375,464.58333333333337,151.375,800,127C1135.4166666666665,102.625,1266.6666666666665,-95.75,1600,-107C1933.3333333333335,-118.25,2181.25,-32.625,2400,73C2618.75,178.625,3254.1666666666665,227.70833333333331,2650,400C2045.8333333333335,572.2916666666667,156.25,795.8333333333334,-500,900" transform="matrix(1,0,0,1,0,242)" opacity="0.53"></path><path d="M-10,10C158.75,34.375,464.58333333333337,151.375,800,127C1135.4166666666665,102.625,1266.6666666666665,-95.75,1600,-107C1933.3333333333335,-118.25,2181.25,-32.625,2400,73C2618.75,178.625,3254.1666666666665,227.70833333333331,2650,400C2045.8333333333335,572.2916666666667,156.25,795.8333333333334,-500,900" transform="matrix(1,0,0,1,0,363)" opacity="1.00"></path></g></svg>